<?xml version="1.0" encoding="utf-8"?>
<!DOCTYPE svg PUBLIC "-//W3C//DTD SVG 1.1//EN" "http://www.w3.org/Graphics/SVG/1.1/DTD/svg11.dtd">
<svg xmlns="http://www.w3.org/2000/svg" xmlns:xlink="http://www.w3.org/1999/xlink" viewBox="0 0 155 35">
<path fill="#62A1C3" d="M40.644,7.873l-1.532,6.659c-0.791,3.501-2.801,5.251-6.031,5.251l2.669,12.614c0.198,0.903,0.477,1.715,0.84,2.437H23.095
	l-2.323-15.051h-3.708l-2.125,9.313c-0.527,2.382-0.626,4.295-0.296,5.738H0.604c0.956-1.335,1.713-3.248,2.274-5.738l5.29-23.172
	c0.56-2.454,0.675-4.367,0.346-5.739h26.1c4.284,0,6.426,1.57,6.426,4.71C41.039,5.761,40.907,6.754,40.644,7.873z M28.582,7.873
	c0.099-0.36,0.148-0.667,0.148-0.92c0-0.686-0.494-1.029-1.483-1.029h-7.02l-1.829,8.121h7.019c1.187,0,1.928-0.649,2.225-1.949
	L28.582,7.873z M75.938,0.185l-0.544,6.875c-1.285-0.758-2.768-1.137-4.449-1.137H59.329c-1.384,0-2.192,0.469-2.422,1.408
	l-0.544,2.22c-0.033,0.181-0.049,0.325-0.049,0.433c0,0.614,0.625,0.92,1.878,0.92h8.997c4.284,0,6.426,1.57,6.426,4.71
	c0,0.614-0.083,1.264-0.247,1.949l-2.076,9.096c-1.253,5.45-4.251,8.175-8.997,8.175H40.1l0.544-7.038c1.186,0.866,2.62,1.3,4.3,1.3
	h12.21c1.252,0,1.994-0.506,2.225-1.517l0.543-2.382c0.066-0.217,0.099-0.414,0.099-0.596c0-0.613-0.593-0.92-1.78-0.92H47.91
	c-3.428,0-5.141-1.371-5.141-4.115c0-0.865,0.131-1.912,0.396-3.14l1.878-8.283c0.527-2.31,1.466-4.169,2.817-5.576
	c1.483-1.588,3.295-2.382,5.438-2.382H75.938z M112.715,9.768l-3.51,15.483c-1.45,6.389-4.778,9.583-9.985,9.583H73.367
	c0.956-1.335,1.713-3.248,2.274-5.738L80.93,5.924c0.561-2.454,0.676-4.367,0.347-5.739h25.853c4.021,0,6.031,1.968,6.031,5.901
	C113.16,7.169,113.012,8.396,112.715,9.768z M101.049,8.089c0.065-0.289,0.099-0.542,0.099-0.758c0-0.938-0.659-1.408-1.977-1.408
	h-6.18l-5.289,23.172h6.179c1.582,0,2.537-0.722,2.867-2.166L101.049,8.089z M154.88,0.185c-0.988,1.408-1.764,3.321-2.323,5.739
	l-6.574,28.91h-15.621L123.836,6.14h-0.099l-5.239,22.956c-0.528,2.382-0.627,4.295-0.297,5.738h-7.217
	c0.955-1.335,1.713-3.248,2.273-5.738l5.289-23.172c0.561-2.454,0.676-4.367,0.347-5.739h16.757l6.377,28.26h0.148l5.141-22.521
	c0.561-2.454,0.676-4.367,0.347-5.739H154.88z"/>
</svg>
